{"title":"Blue.Jasmine.2013.DVDScr.XVID.AC3.HQ.Hive-CM8","uid":9435459,"size":1455071387,"categoryP":"video","categoryS":"movies","magnet":"?xt=urn:btih:ea3062d7ac6a2eb4ca2b5c322c03caaba9d06de2&amp;dn=Blue.Jasmine.2013.DVDScr.XVID.AC3.HQ.Hive-CM8&amp;tr=udp%3A%2F%2Ftracker.openbittorrent.com%3A80&amp;tr=udp%3A%2F%2Fopen.demonii.com%3A1337&amp;tr=udp%3A%2F%2Ftracker.coppersurfer.tk%3A6969&amp;tr=udp%3A%2F%2Fexodus.desync.com%3A6969","seeders":1,"leechers":0,"uploader":"NewSky005","files":3,"time":1388896043,"description":"[img]http://lookpic.com/O/i2/567/vh7ZPJyV.jpeg[/img] &lt;a href=&quot;\nhttp://www.imdb.com/title/tt2334873/&quot; rel=&quot;nofollow&quot; target=&quot;_NEW&quot;&gt;\nhttp://www.imdb.com/title/tt2334873/&lt;/a&gt;\nBlue.Jasmine.2013.DVDScr.XVID.AC3.HQ.Hive-CM8\n\nThx Hive\n\nCM8 Doing It Right The First Time\n\nSource: DVDScr DVD-R  Big thanks DRs\n\n\nEncode:\n\nDVD had great quality just colours were reddish, tried cpl versions to balance the levels, finally got it done\nfixed rgb,blackbase,whitebase,contrast,brightness and added sharpness and denoise\n\ngot very nice\n\nenjoy\ntill next scr\n\nVideo: 720x304 @bitrate 1500 2pass\nAudio: English AC3 5.1 @448\nSample: yes included\n\n &lt;a href=&quot;\nhttp://www.imdb.com/title/tt2334873/&quot; rel=&quot;nofollow&quot; target=&quot;_NEW&quot;&gt;\nhttp://www.imdb.com/title/tt2334873/&lt;/a&gt;\n\n\nGeneral\nComplete name                  : Blue.Jasmine.2013.DVDScr.XVID.AC3.HQ.Hive-CM8.avi\nFormat                         : AVI\nFormat/Info                    : Audio Video Interleave\nFile size                      : 1.34 GiB\nDuration                       : 1h 38mn\nOverall bit rate               : 1 947 Kbps\nWriting application            : Nandub v1.0rc2\nWriting library                : Nandub build 1853/release\n\nVideo\nID                             : 0\nFormat                         : MPEG-4 Visual\nFormat profile                 : Advanced Simple@L5\nFormat settings, BVOP          : 2\nFormat settings, QPel          : Yes\nFormat settings, GMC           : No warppoints\nFormat settings, Matrix        : Default (H.263)\nMuxing mode                    : Packed bitstream\nCodec ID                       : XVID\nCodec ID/Hint                  : XviD\nDuration                       : 1h 38mn\nBit rate                       : 1 490 Kbps\nWidth                          : 720 pixels\nHeight                         : 304 pixels\nDisplay aspect ratio           : 2.35:1\nFrame rate                     : 23.976 fps\nColor space                    : YUV\nChroma subsampling             : 4:2:0\nBit depth                      : 8 bits\nScan type                      : Progressive\nCompression mode               : Lossy\nBits/(Pixel*Frame)             : 0.284\nStream size                    : 1.02 GiB (77%)\nWriting library                : XviD 1.2.1 (UTC 2008-12-04)\n\nAudio\nID                             : 1\nFormat                         : AC-3\nFormat/Info                    : Audio Coding 3\nMode extension                 : CM (complete main)\nFormat settings, Endianness    : Big\nCodec ID                       : 2000\nDuration                       : 1h 38mn\nBit rate mode                  : Constant\nBit rate                       : 448 Kbps\nChannel(s)                     : 6 channels\nChannel positions              : Front: L C R, Side: L R, LFE\nSampling rate                  : 48.0 KHz\nBit depth                      : 16 bits\nCompression mode               : Lossy\nStream size                    : 315 MiB (23%)\nAlignment                      : Split accross interleaves\nInterleave, duration           : 42 ms (1.00 video frame)\nInterleave, preload duration   : 500 ms\n\n\nPlot:\n\nA New York socialite, deeply troubled and in denial, arrives in San Francisco to\nimpose upon her sister. She looks a million, but isn't bringing money, peace, or love...\nCast:\n\nCate Blanchett ... Jasmine\nAlec Baldwin ... Hal\nPeter Sarsgaard ... Dwight\nAndrew Dice Clay ... Augie\nLouis C.K. ... Al\n\n\n[img]http://img15.imageshack.us/img15/5135/nlmq.png[/img]\n[img]http://img600.imageshack.us/img600/122/2btv.png[/img]\n[img]http://img571.imageshack.us/img571/4254/iz9h.png[/img]\n[img]http://img855.imageshack.us/img855/1061/07ae.png[/img]","torrent":{"xt":"urn:btih:ea3062d7ac6a2eb4ca2b5c322c03caaba9d06de2","amp;dn":"Blue.Jasmine.2013.DVDScr.XVID.AC3.HQ.Hive-CM8","amp;tr":["udp%3A%2F%2Ftracker.openbittorrent.com%3A80","udp%3A%2F%2Fopen.demonii.com%3A1337","udp%3A%2F%2Ftracker.coppersurfer.tk%3A6969","udp%3A%2F%2Fexodus.desync.com%3A6969"],"infoHash":"ea3062d7ac6a2eb4ca2b5c322c03caaba9d06de2","infoHashBuffer":{"type":"Buffer","data":[234,48,98,215,172,106,46,180,202,43,92,50,44,3,202,171,169,208,109,226]},"announce":[],"urlList":[]}}